# xmcd CD database file
#
# Track frame offsets:
#	150
#	14384
#	35229
#	62789
#	88591
#	111925
#	143749
#	162391
#	176877
#	202266
#	226619
#
# Disc length: 3400 seconds
#
# Revision: 0
# Processed by: cddbd v1.4PL0 Copyright (c) Steve Scherf et al.
# Submitted via: CDex 1.50
#
DISCID=9b0d460b
DTITLE=Various Artist - Blue Flame DUB Volume 1
DYEAR=1900
DGENRE=Dub
TTITLE0=Yamany - Counter Clock World
TTITLE1=RUV Bytes - Because
TTITLE2=Watts - Dub Chemist
TTITLE3=Soul Fire - Evolution
TTITLE4=Goma Meets HAV - Volcano
TTITLE5=Zabiel and Haet Band - Smoky Mountain
TTITLE6=Sunsons - Live
TTITLE7=Drum-Wee - Bam's Memory
TTITLE8=Moto - Snap
TTITLE9=Hula-Loop - Word
TTITLE10=Equalizer - 7-7-6 Dub
EXTD=
EXTT0=
EXTT1=
EXTT2=
EXTT3=
EXTT4=
EXTT5=
EXTT6=
EXTT7=
EXTT8=
EXTT9=
EXTT10=
PLAYORDER=
